<?xml version="1.0" encoding="utf-8"?>
<!-- Generator: Adobe Illustrator 18.1.1, SVG Export Plug-In . SVG Version: 6.00 Build 0)  -->
<!DOCTYPE svg PUBLIC "-//W3C//DTD SVG 1.1//EN" "http://www.w3.org/Graphics/SVG/1.1/DTD/svg11.dtd">
<svg version="1.1" id="Layer_1" xmlns="http://www.w3.org/2000/svg" xmlns:xlink="http://www.w3.org/1999/xlink" x="0px" y="0px"
	 width="60px" height="60px" viewBox="0 0 60 60" enable-background="new 0 0 60 60" xml:space="preserve">
<path fill="#FFFFFF" d="M37,33l-1.293,1.293l-0.969-0.969C36.15,31.6,37,29.398,37,27c0-5.514-4.486-10-10-10s-10,4.486-10,10
	s4.486,10,10,10c2.398,0,4.6-0.85,6.324-2.262l0.969,0.969L33,37l6,6l4-4L37,33z M27,35c-4.418,0-8-3.582-8-8s3.582-8,8-8
	s8,3.582,8,8S31.418,35,27,35z M35.828,37L37,35.828L40.172,39L39,40.172L35.828,37z"/>
</svg>
