<?xml version="1.0" encoding="utf-8"?>
<!-- Generator: Adobe Illustrator 18.1.1, SVG Export Plug-In . SVG Version: 6.00 Build 0)  -->
<!DOCTYPE svg PUBLIC "-//W3C//DTD SVG 1.1//EN" "http://www.w3.org/Graphics/SVG/1.1/DTD/svg11.dtd">
<svg version="1.1" id="Layer_1" xmlns="http://www.w3.org/2000/svg" xmlns:xlink="http://www.w3.org/1999/xlink" x="0px" y="0px"
	 width="60px" height="60px" viewBox="0 0 60 60" enable-background="new 0 0 60 60" xml:space="preserve">
<path fill="#19150D" d="M40,4L4,40v16h16l36-36L40,4z M50.343,20l-3.757,3.757L36.243,13.414L40,9.657L50.343,20z M10.243,39.414
	l3.248-3.248c1.225,0.901,2.859,1.602,4.648,1.602c1.719,0,3.562-0.641,5.275-2.354l8-8c2.016-2.016,3.699-6.183,0.773-9.945
	l1.227-1.227l10.343,10.343L20.586,49.757L10.243,39.414z M28.586,24.586l-8,8c-1.65,1.646-3.207,1.275-4.215,0.7l12.942-12.942
	C30.485,22.331,29.095,24.059,28.586,24.586z M8,42.828L17.172,52H8V42.828z"/>
</svg>
