<?xml version="1.0" encoding="utf-8"?>
<!-- Generator: Adobe Illustrator 18.1.1, SVG Export Plug-In . SVG Version: 6.00 Build 0)  -->
<!DOCTYPE svg PUBLIC "-//W3C//DTD SVG 1.1//EN" "http://www.w3.org/Graphics/SVG/1.1/DTD/svg11.dtd">
<svg version="1.1" id="Layer_1" xmlns="http://www.w3.org/2000/svg" xmlns:xlink="http://www.w3.org/1999/xlink" x="0px" y="0px"
	 width="60px" height="60px" viewBox="0 0 60 60" enable-background="new 0 0 60 60" xml:space="preserve">
<path fill="#19150D" d="M44,36l-2.586,2.586l-1.937-1.937C42.301,33.199,44,28.795,44,24c0-11.028-8.972-20-20-20S4,12.972,4,24
	s8.972,20,20,20c4.795,0,9.199-1.699,12.649-4.523l1.937,1.937L36,44l12,12l8-8L44,36z M24,40c-8.837,0-16-7.163-16-16
	S15.163,8,24,8s16,7.163,16,16S32.837,40,24,40z M41.657,44L44,41.657L50.343,48L48,50.343L41.657,44z"/>
</svg>
