<?xml version="1.0" encoding="utf-8"?>
<!-- Generator: Adobe Illustrator 18.1.1, SVG Export Plug-In . SVG Version: 6.00 Build 0)  -->
<!DOCTYPE svg PUBLIC "-//W3C//DTD SVG 1.1//EN" "http://www.w3.org/Graphics/SVG/1.1/DTD/svg11.dtd">
<svg version="1.1" id="Layer_1" xmlns="http://www.w3.org/2000/svg" xmlns:xlink="http://www.w3.org/1999/xlink" x="0px" y="0px"
	 width="300px" height="240px" viewBox="0 0 300 240" enable-background="new 0 0 300 240" xml:space="preserve">
<g>
	<g>
		<g>
			<path fill="#18140C" d="M49.847,60.079c0,2.239-0.022,6.61-0.022,8.414c0,0.805,0.326,0.913,0.826,0.913
				c0.217,0,0.522-0.022,0.717-0.044v1.304c-0.348,0.065-0.783,0.109-1.283,0.109c-0.891,0-1.739-0.457-1.739-1.957
				c0-2.174,0-5.914,0-8.741h-0.913v-1.326h0.913c0-0.043,0.044-1.892,0.044-1.892l1.435-0.065c0,0,0,1.892,0,1.957h1.565v1.326
				H49.847z"/>
			<path fill="#18140C" d="M56.066,70.712c-0.022,0-0.022-0.174-0.022-9.632c0-0.609-0.239-1.044-1.022-1.044
				c-0.696,0-1.239,0.5-1.239,1.609v9.066h-1.457V53.339h1.435v6.414c0.196-0.739,0.935-1.13,1.87-1.13
				c1.087,0,1.892,0.652,1.892,2.174c0,9.741,0,9.914,0.022,9.914H56.066z"/>
			<path fill="#18140C" d="M61.393,70.842c-1.087,0-1.826-0.261-2.261-1.218c-0.413-0.891-0.566-2.392-0.566-4.762
				c0-2.544,0.196-4.218,0.739-5.175c0.435-0.761,1.087-1.087,2.044-1.087c2.131,0,2.696,1.457,2.696,4.349v2.435h-4.044
				c0,3.066,0.152,4.153,1.348,4.153c1.066,0,1.261-0.674,1.261-2.435h1.392C64.003,69.755,63.133,70.842,61.393,70.842z
				 M62.611,62.58c0-1.652-0.152-2.609-1.305-2.609c-0.957,0-1.304,0.478-1.304,4.131h2.609V62.58z"/>
		</g>
		<path fill="#18140C" d="M82.056,51.826c0.991,0.048,1.916,0.894,2.272,2.089c0.381,1.279,0.264,2.781,0.14,4.371
			c-0.056,0.713-0.113,1.451-0.127,2.196c-0.072,3.752-0.66,7.856-1.748,12.2c-0.138,0.552-0.296,1.14-0.497,1.85l-0.196,0.692
			l-0.14,0.465c-0.723,2.402-1.606,4.92-2.863,8.163l-0.057,0.147c-0.712,1.836-6.783,19.24-8.961,18.151
			c-1.228-0.615,0.453-2.934,0.77-3.49c0.931-1.633,1.484-3.434,2.22-5.157c1.492-3.488,2.769-7.065,4.064-10.63
			c1.111-3.059,2.039-6.115,2.839-9.341l0.107-0.432l0.325-0.824c1.499-3.798,2.397-8.623,2.825-15.187
			c0.053-0.819,0.098-2.04-0.128-3.189C82.726,53.005,82.419,52.333,82.056,51.826 M149.57,59.074
			c-0.279,0.494-0.518,0.986-0.735,1.432c-0.173,0.355-0.336,0.69-0.479,0.941c-2.726,4.807-4.731,9.976-6.49,14.845
			c-1.665,4.606-3.254,9.237-4.885,13.855c-0.654,1.853-1.325,3.762-2.331,5.46c-0.099,0.167-1.885,2.721-2.376,1.806
			c-0.803-1.497,0.933-3.759,1.487-5.071c1.076-2.551,1.904-5.227,2.816-7.841c0.775-2.224,1.577-4.524,2.402-6.766l0.092-0.251
			c1.976-5.377,4.02-10.937,7.232-15.465C147.054,60.961,148.259,59.857,149.57,59.074 M260.181,62.959
			c-2.552,1.981-4.78,5.035-6.292,7.107l-0.195,0.267c-0.946,1.293-1.883,2.715-2.867,4.345c0,0-0.24,0.398-0.25,0.398l-0.217,0.375
			l-1.608,2.666l0.098-0.004c-0.562,1.016-1.111,2.033-1.648,3.03c-0.89,1.651-1.811,3.357-2.759,4.997l-0.467,0.807
			c-1.841,3.179-3.744,6.468-5.528,9.754c-1.168,2.151-2.359,4.304-3.42,6.511c-0.648,1.348-1.266,3.862-3.094,4.125
			c-1.602,0.229,0.45-2.754,0.565-2.959c0.773-1.379,1.367-2.842,2.155-4.221c1.806-3.158,3.523-6.36,5.385-9.488
			c2.609-4.382,5.351-8.819,7.716-12.635l1.21-1.951l0.242-0.39c1.025-1.652,2.05-3.303,3.071-4.955
			c0.707-1.144,2.227-3.363,4.469-5.378C257.667,64.531,258.855,63.615,260.181,62.959 M113.924,63.868
			c-0.15,3.283-0.988,6.632-1.804,9.887l-0.025,0.102c-0.431,1.72-0.961,3.512-1.621,5.479c0,0-0.344,1.026-0.346,1.027
			l-0.372,1.036c-0.417,1.16-0.861,2.346-1.357,3.628l-0.056,0.145c-0.586,1.512-1.224,3.144-2.058,4.54
			c-0.31,0.518-1.249,2.315-2.076,2.161c-0.78-0.145-0.488-0.95-0.245-1.537c0.72-1.739,1.437-3.456,2.083-5.228
			c0.001-0.002,1.503-4.12,1.503-4.12l-0.076,0.024c0.809-2.48,1.494-4.928,2.079-7.423c0.675-2.882,1.428-6.093,1.514-9.491
			C111.853,63.995,112.912,63.902,113.924,63.868 M45.65,84.562c-2.486,3.147-4.939,7.44-6.994,13.296
			c-0.452,1.289-1.63,7.958-3.905,7.232c-2.786-0.89,2.685-9.875,3.38-11.076C40.39,90.109,42.884,86.97,45.65,84.562
			 M163.048,87.084c-1.466,2.286-2.598,4.734-3.707,7.129c-0.832,1.798-2.164,6.282-4.369,6.811
			c-1.548,0.371-1.16-1.261-0.791-2.006c0.787-1.589,1.693-3.13,2.487-4.721c0.545-1.093,1.094-2.192,1.653-3.295
			C159.795,88.093,160.507,87.464,163.048,87.084 M123.784,87.911c-1.147,2.124-2.014,4.358-2.864,6.545
			c-0.439,1.131-2.376,8.155-4.513,7.065c-1.138-0.581,1.993-5.923,2.329-6.718c0.441-1.044,0.884-2.093,1.338-3.148
			C121.183,89.073,121.787,88.39,123.784,87.911 M200.699,87.927c-0.476,0.717-0.908,1.445-1.334,2.163
			c-0.282,0.476-0.549,0.925-0.827,1.369c-1.383,2.21-2.636,4.506-3.848,6.727c-0.704,1.29-2.351,6.263-4.599,5.275
			c-0.216-1.103,1.567-3.105,2.089-4.053c2.145-3.902,4.362-7.937,7.128-11.305C199.597,88.008,200.192,87.958,200.699,87.927
			 M213.634,88.818c-2.158,2.377-3.9,4.695-5.304,7.054c-1.055,1.774-1.996,3.609-2.914,5.456c-0.536,1.078-1.242,3.458-2.667,3.713
			c-2.054,0.367,1.679-5.373,1.788-5.555c1.844-3.085,3.836-5.971,6.412-8.506C211.776,90.165,212.68,89.441,213.634,88.818
			 M176.14,90.303c-0.292,0.349-0.571,0.692-0.837,1.019c-0.364,0.448-0.708,0.872-1.013,1.22c-0.735,0.84-7.249,9.998-8.279,9.122
			c-0.757-0.643,3.186-4.297,3.642-4.83C171.106,95.137,173.485,92.357,176.14,90.303 M81.763,143.274
			c-1.89,2.975-3.134,7.15-1.453,10.837c0.108,0.237,0.241,0.465,0.396,0.686c-1.247-0.749-2.297-1.734-2.943-2.812
			c-0.705-1.176-0.896-2.417-0.568-3.687c0.428-1.655,1.768-3.2,4.097-4.723C81.447,143.474,81.604,143.374,81.763,143.274
			 M134.383,167.497c-0.208,0.206-0.395,0.403-0.557,0.583c-3.189,3.525-5.017,8.354-4.77,12.604
			c0.103,1.759,0.559,3.277,1.28,4.566c-2.853-2.376-3.654-5.887-3.357-8.728C127.329,173.157,129.484,168.853,134.383,167.497
			 M81.966,49.649c-0.675,0-1.379,0.169-2.081,0.542c-4.038,2.149-6.481,6.071-6.736,10.635c-0.233,4.163,2.16,8.864,4.514,12.18
			c-0.766,3.092-1.681,6.119-2.772,9.121c-2.874,7.911-5.881,16.073-10.241,23.309c-2.117,3.512-4.323,6.971-6.372,10.524
			c-1.113,1.929-2.32,5.55-5.067,5.55c-0.078,0-0.156-0.003-0.236-0.009c-3.312-0.249-0.964-6.182-0.395-7.839
			c1.235-3.597,2.772-7.212,4.489-10.534c1.183-2.289,2.311-4.63,3.506-6.931c0.482-0.928,1.021-2.007,1.576-2.86
			c0.265-0.408,1.487-1.287,1.132-1.834c-0.791-1.22-4.014,1.203-4.653,1.739c-1.264,1.062-2.346,2.321-3.293,3.67
			c-2.972,4.233-4.669,9.034-6.915,13.647c-1.346,2.763-2.377,5.677-3.924,8.354c-0.782,1.353-2.004,2.994-3.73,2.994
			c-0.183,0-0.372-0.018-0.566-0.058c-3.632-0.733-3.156-6.171-2.84-8.837c0.245-2.067,0.464-4.141,0.889-6.182
			c0.577-2.772,1.522-5.583,2.459-8.254c2.719-7.75,7.97-17.177,16.268-19.954c0.367-0.123,0.718-0.179,1.05-0.179
			c2.092,0,3.476,2.232,3.862,4.247c0.237,1.242,0.048,3.019-0.814,4.015c-0.25,0.289-0.671,0.488-1.069,0.488
			c-0.331,0-0.645-0.137-0.833-0.472c-0.54-0.962,0.841-1.596,1.005-2.389c0.203-0.981-1.385-2.334-2.232-2.399
			c-0.052-0.004-0.104-0.006-0.156-0.006c-1.12,0-2.226,0.909-2.86,1.743c-1.33,1.749-1.177,4.732,0.846,6.021
			c1.007,0.642,1.944,0.922,2.794,0.922c4.321,0,6.402-7.232,4.219-10.859c-1.204-2-3.395-2.784-5.628-2.784
			c-0.98,0-1.967,0.151-2.884,0.415c-8.204,2.371-13.88,8.374-18.027,15.538c-2.04,3.524-3.79,7.223-4.726,11.203
			c-1.418,6.032-3.966,16.17,4.185,18.656c1.322,0.403,3.036,0.699,4.584,0.699c0.517,0,1.015-0.033,1.474-0.106
			c1.378-0.219,2.701-0.673,4.015-1.129c0.84-0.292,1.735-0.868,2.642-0.868c0.231,0,0.463,0.038,0.696,0.127
			c0.474,0.182,0.583,0.493,0.971,0.769c1.276,0.91,2.705,1.3,4.152,1.3c3.257,0,6.613-1.973,8.575-4.45
			c2.944-3.717,5.552-8.068,7.978-12.138c4.227-7.095,7.157-14.679,10.131-22.351c1.063-2.743,2.07-5.507,2.918-8.322
			c1.309,0.082,2.707,0.211,3.535,1.186c1.335,1.576-0.398,4.315-1.046,5.856c-2.478,5.889-5.027,11.773-7.516,17.673
			c-2.073,4.914-3.75,10.179-4.413,15.494c-0.308,2.474,0.716,4.918,2.926,6.116c2.65,1.436,5.927,0.73,8.709,0.108
			c2.279-0.509,4.243-1.665,5.972-3.18c0.188,0.977,0.815,1.921,1.694,2.507c1.449,0.965,2.976,1.379,4.523,1.379
			c2.736,0,5.539-1.293,8.095-3.12c1.685,1.8,4.919,2.552,7.411,2.552c0.286,0,0.562-0.01,0.826-0.029
			c1.715-0.126,5.863-0.598,7-2.186c-0.659,0.92-0.976,1.871-1.45,2.908c-0.543,1.188-1.042,2.396-1.596,3.579
			c-1.121,2.394-2.323,4.752-3.629,7.051c-5.915,0.023-11.866,0.501-17.698,1.453c-5.767,0.942-12.172,2.882-17.084,6.095
			c-2.209,1.445-4.327,3.351-5.012,5.999c-1.353,5.229,3.591,9.279,7.971,10.342c1.511,0.367,3.054,0.526,4.603,0.526
			c3.462,0,6.956-0.795,10.21-1.844c6.644-2.143,13.454-7.888,17.775-13.205c1.84-2.264,3.477-4.687,4.969-7.204
			c0.131-0.222,0.676-0.312,1.476-0.312c3.233,0,10.634,1.47,11.763,1.658c4.357,0.724,8.693,1.657,12.974,2.741
			c8.241,2.087,16.913,5.747,21.974,12.894c3.434,4.849,5.438,12.338,2.555,17.973c-0.669,1.308-2.195,2.302-3.158,3.447
			c-1.453,1.306-2.928,2.588-4.446,3.825c-5.747,4.686-12.546,8.95-20.011,10.033c-0.7,0.102-1.419,0.154-2.14,0.154
			c-4.951,0-10.043-2.456-10.379-8.224c-0.229-3.936,1.607-8.14,4.212-11.019c1-1.106,2.765-2.634,4.445-2.634
			c0.575,0,1.14,0.179,1.661,0.615c2.266,1.895-0.351,3.779-1.725,5.146c-2.405,2.394-3.754,6.388,1.173,6.439
			c0.024,0,0.048,0,0.072,0c4.793,0,7.43-5.047,5.739-9.069c-1.606-3.818-5.038-5.219-8.702-5.219c-1.222,0-2.469,0.156-3.683,0.43
			c-11.274,2.545-13.364,18.514-2.7,23.408c2.658,1.22,5.688,1.695,8.788,1.695c4.353,0,8.845-0.937,12.644-2.063
			c8.335-2.47,15.52-8.15,21.931-13.818c6.58-5.817,12.785-12.095,19.151-18.145c8.304-7.892,16.526-15.872,25.119-23.452
			c2.146-1.893,4.352-3.715,6.495-5.613c0.85-0.753,1.785-1.488,1.785-1.488s1.541,0.606,2.576,0.89c0.81,0.222,1.738,0.31,2.7,0.31
			c1.656,0,3.409-0.259,4.826-0.535c4.758-0.927,11.243-3.987,13.651-8.451c1.046-1.941,0.834-5.303-1.276-6.633
			c-1.14-0.718-2.497-1.008-3.932-1.008c-3.294,0-6.993,1.525-9.388,2.878c-1.639,0.926-3.194,2.005-4.7,3.156
			c0.262-0.901,0.552-1.749,0.798-2.484c1.878-5.622,4.651-10.961,7.471-16.157c1.918-3.534,3.952-7.029,5.966-10.51
			c1.909-3.299,3.616-6.7,5.515-9.992c1.279-0.013,2.567-0.084,3.866-0.222c3.159-0.336,7.054-1.384,9.599-3.407
			c3.719-2.956,7.656-10.501,1.432-13.099c-1.033-0.431-2.069-0.624-3.093-0.624c-3.013,0-5.92,1.671-8.352,3.858
			c-2.02,1.816-3.712,3.988-4.865,5.852c-1.215,1.965-2.434,3.929-3.653,5.894c-1.679-0.222-3.331-0.54-4.911-0.918
			c-7.889-1.885-15.22-5.918-22.893-8.463c-2.774-0.92-5.776-1.759-8.75-1.759c-0.949,0-1.895,0.085-2.83,0.281
			c-2.628,0.549-5.532,1.924-7.14,4.136c-1.457,2.004-1.355,5.451,0.695,7.158c1.126,0.939,2.97,1.55,4.73,1.55
			c1.445,0,2.834-0.413,3.722-1.396c0.899-0.996,1.525-3.011,1.01-4.29c-0.303-0.753-0.946-1.058-1.661-1.341
			c-0.585-0.232-2.428-0.5-2.768-1.004c-0.388-0.576-0.1-1.476,0.267-2.006c0.475-0.686,1.445-0.935,2.208-1.108
			c0.911-0.207,1.825-0.299,2.738-0.299c4.882,0,9.735,2.641,14.06,4.537c6.673,2.926,13.518,5.427,20.654,6.321
			c-2.607,4.206-5.207,8.42-7.736,12.668c-3.36,5.643-6.58,11.388-9.37,17.336c-1.852,3.948-3.806,8.236-4.418,12.624
			c-0.286,0.362-0.573,0.713-0.885,0.996c-1.037,0.943-2.301,1.843-3.619,1.843c-0.526,0-1.06-0.143-1.592-0.484
			c-1.956-1.253-1.325-4.988-0.78-6.851c0.827-2.824,1.886-5.6,3.026-8.31c0.962-2.285,1.949-4.638,3.396-6.665
			c0.676-0.947,1.404-1.86,2.202-2.707c0.201-0.213,1.58-1.549,0.447-1.656c-0.046-0.004-0.093-0.006-0.14-0.006
			c-0.477,0-1.004,0.205-1.471,0.252c-0.888,0.089-1.689,0-2.534,0.349c-2.42,1-3.485,3.099-4.636,5.264
			c-1.815,3.414-3.171,7.04-5.039,10.438c-1.325,2.409-2.672,5.052-4.472,7.143c-1.488,1.728-4.388,3.397-6.882,3.397
			c-0.264,0-0.523-0.019-0.776-0.058c-1.224-0.19-2.253-0.853-3.05-1.786c-0.132-0.156-0.304-0.505-0.498-0.921
			c1.292-1.32,2.388-2.871,3.376-4.349c3.868-5.784,6.191-12.451,9.744-18.421c1.703-2.862,3.786-5.416,6.083-7.818
			c1.689-1.766,3.91-3.649,6.426-3.914c0.224-0.024,0.454-0.035,0.687-0.035c2.167,0,4.632,1.026,5.007,3.32
			c0.334,2.046-1.066,4.211-2.96,5.003c-0.426,0.178-0.854,0.263-1.251,0.263c-1.446,0-2.477-1.121-1.516-2.876
			c0.486-0.888,1.022-1.892,0.235-2.82c-0.211-0.249-0.732-0.348-1.255-0.348c-0.495,0-0.993,0.088-1.234,0.221
			c-0.798,0.438-1.058,1.436-1.049,2.284c0.029,2.858,2.371,4.605,4.825,4.605c0.85,0,1.715-0.21,2.501-0.656
			c2.219-1.26,3.36-4.197,2.5-6.603c-0.906-2.535-4.05-3.367-6.502-3.526c-0.306-0.02-0.613-0.029-0.92-0.029
			c-4.574,0-9.093,2.167-12.354,5.376c-5.013,4.935-8.137,11.01-11.155,17.274c-1.883,3.908-3.737,7.742-6.297,11.272
			c-1.515,2.09-3.937,4.29-6.461,4.29c-1.142,0-2.304-0.45-3.413-1.564c-0.074-0.074-0.271-0.328-0.516-0.632
			c5.09-3.86,8.724-10.029,11.888-15.294c2.404-4.001,4.436-8.21,6.912-12.166c1.179-1.883,2.198-3.911,3.73-5.54
			c0.137-0.146,2.638-2.457,1.045-2.457c-0.026,0-0.053,0.001-0.081,0.002c-0.759,0.033-1.528,0.731-2.266,0.933
			c-1.241,0.339-4.164-0.05-5.049,1.014c-3.934,4.734-6.666,10.505-9.727,15.81c-3.464,6.004-7.12,12.217-12.222,16.996
			c-1.854,1.738-3.773,3.078-5.708,3.078c-1.278,0-2.564-0.584-3.844-2.023c-3.108-3.493-1.036-9.234,0.604-12.882
			c2.229-4.958,5.495-9.49,9.063-13.566c0.931-1.064,2.06-2.602,3.317-3.879c0.86,2.325,2.191,4.706,4.651,4.706
			c0.229,0,0.466-0.02,0.715-0.063c3.469-0.6,3.863-6.176,1.161-8.016c-1.224-0.833-2.493-1.189-3.771-1.189
			c-0.876,0-1.756,0.167-2.628,0.461c-0.323-0.864-0.646-1.727-0.984-2.583c-2.228-5.643-4.876-13.554-10.862-16.307
			c-0.891-0.41-2.062-0.702-3.205-0.702c-1.418,0-2.794,0.449-3.543,1.681c-1.554,2.561,0.829,6.01,3.46,6.017
			c0.009,0,0.018,0,0.027,0c1.94,0,3.677-0.608,5.26-0.608c1.501,0,2.861,0.547,4.121,2.68c1.905,3.226,3.291,6.786,4.442,10.347
			c-4.083,1.943-7.863,6.306-10.085,8.903c-3.846,4.495-7.319,9.608-9.354,15.194c-1.416,3.889-2.144,9.064,1.84,11.679
			c2.001,1.314,4.595,1.693,6.993,1.693c0.321,0,0.637-0.007,0.949-0.019c3.622-0.142,7.359-0.473,10.594-2.233
			c0.567-0.309,1.117-0.648,1.652-1.012c0.338,0.596,0.692,1.119,0.799,1.249c1.12,1.352,3.065,1.845,5.15,1.845
			c2.658,0,5.545-0.801,7.244-1.646c0.882-0.438,1.686-1.01,2.427-1.667c1.745,2.227,3.981,3.101,6.518,3.101
			c1.007,0,2.06-0.137,3.151-0.382c2.148-0.482,4.28-1.512,6.34-2.289c0.631-0.238,1.157-0.361,1.618-0.361
			c0.925,0,1.595,0.494,2.352,1.542c0.823,1.138,2.075,1.622,3.395,1.622c0.567,0,1.147-0.089,1.711-0.254
			c1.019-0.298,1.995-1.011,2.835-1.713c0.01,0.382,0.044,0.764,0.113,1.138c-5.799,5.021-11.633,10.014-17.305,15.176
			c-8.35,7.6-16.367,15.552-24.636,23.237c-1.325,1.232-2.632,2.481-3.935,3.735c0.058-0.218,0.119-0.437,0.169-0.653
			c1.447-6.24-1.911-11.41-6.288-15.719c-1.229-1.21-2.564-2.306-3.986-3.302c-11.011-7.71-27.244-9.382-39.789-10.663
			c-2.298-0.235-4.52-0.361-6.751-0.431c1.832-3.32,3.442-6.769,4.943-10.213c0.345-0.791,0.667-1.592,0.985-2.396
			c2.19,2.061,6.751,2.332,9.437,1.557c3.698-1.068,6.868-3.687,9.616-6.285c1.453-1.373,2.999-2.804,4.258-4.361
			c3.474-4.297,6.176-9.132,8.648-14.057c2.318-4.617,4.06-9.6,7.582-13.413c0.191-0.207,0.661-0.809,0.567-1.126
			c-0.069-0.233-0.31-0.288-0.554-0.288c-0.156,0-0.315,0.023-0.431,0.037c-0.668,0.081-1.327,0.286-1.964,0.493
			c-0.567,0.184-1.221,0.57-1.807,0.648c-3.744,0.503-4.966,1.702-6.705,5.136c-2.076,4.098-4.346,8.148-6.323,12.288
			c-1.811,3.792-3.709,7.681-6.027,11.228c-1.782,2.728-4.348,6.438-7.307,7.98c-1.477,0.769-4.603,0.725-6.224,0.391
			c-2.57-0.53-1.712-2.98-1.046-4.651c0.794-1.992,1.773-3.099,3.238-4.669c3.568-3.821,6.154-8.682,8.926-13.085
			c3.064-4.868,6.014-9.927,8.315-15.205c2.347-5.384,5.053-10.577,6.477-16.309c0.892-3.591,3.081-10.375-2.05-11.947
			c-0.488-0.15-0.995-0.218-1.51-0.218c-3.164,0-6.657,2.592-8.321,4.938c-3.432,4.838-5.56,10.698-7.592,16.224
			c-1.852,5.036-3.509,10.129-5.405,15.15c-1.014,2.684-2.022,5.373-2.982,8.076c-1.761,4.959-2.872,10.243-4.984,15.063
			c-1.822,4.159-5.037,6.177-9.557,6.406c-0.219,0.011-0.438,0.017-0.658,0.017c-1.22,0-2.439-0.182-3.568-0.666
			c-0.833-0.359-1.504-1.069-2.202-1.656c6.661-5.362,10.772-13.142,14.063-20.882c1.878-4.416,3.202-9.137,6.244-12.878
			c0.166-0.204,0.566-0.79,0.459-1.078c-0.068-0.186-0.251-0.237-0.448-0.237c-0.17,0-0.351,0.039-0.478,0.062
			c-0.615,0.114-1.214,0.343-1.792,0.572c-0.516,0.203-1.099,0.599-1.638,0.706c-3.442,0.686-4.503,1.869-5.916,5.155
			c-1.899,4.418-3.673,8.899-5.849,13.192c-1.125,2.219-2.358,4.337-3.51,6.54c-0.531,1.015-1.076,1.944-1.697,2.909
			c-1.712,2.663-4.032,6.076-6.979,7.481c-1.709,0.815-5.403,1.245-6.657-0.751c-0.321-0.512-0.327-1.059-0.314-1.601
			c2.987-3.028,5.239-7.068,7.224-10.401c4.227-7.095,7.157-14.679,10.131-22.351c0.473-1.221,0.934-2.447,1.376-3.678
			c0.371-0.11,0.74-0.224,1.106-0.349c6.349-2.172,14.425-4.926,17.335-11.568c1.008-2.302,1.242-5.206-1.506-6.28
			c-0.625-0.245-1.294-0.357-1.97-0.357c-1.709,0-3.464,0.717-4.686,1.825c-1.679,1.522-2.151,3.572-0.208,5.04
			c1.187,0.897,3.119,1.364,2.542,3.275c-0.465,1.542-2.502,2.6-3.827,3.26c-2.581,1.285-5.342,2.1-8.052,3.047
			c0.624-1.859,1.192-3.737,1.669-5.643c1.023-4.084,2.086-8.289,1.896-12.528c-0.006-0.123-0.581-0.177-1.405-0.177
			c-2.106,0-5.836,0.354-5.815,0.809c0.162,3.609-0.625,7.111-1.444,10.603c-0.765,3.264-1.711,6.444-2.832,9.598
			c-0.374,0.142-0.747,0.288-1.117,0.445c-2.311,0.977-4.79,1.635-6.275,3.855c-1.189,1.778-1.232,5.187,0.298,6.872
			c0.439,0.483,1.372,0.931,2.384,1.164c-1.151,2.76-2.375,5.487-3.729,8.143c-1.563,3.068-3.29,6.04-5.133,8.948
			c-1.566,2.472-2.807,5.244-4.645,7.524c-1.304,1.619-3.205,2.424-5.296,2.273c-5.316-0.384-0.325-8.466,0.375-10.817
			c1.113-3.734,2.749-7.287,4.109-10.933c1.833-4.912,3.807-9.848,6.251-14.491c1.03-1.957,1.828-4.209,3.154-5.988
			c0.652-0.874,2.729-2.325,2.329-3.636c-0.129-0.421-0.799-0.556-1.616-0.556c-1.253,0-2.85,0.317-3.363,0.401
			c-1.004,0.164-2.047,0.266-3.089,0.266c-1.198,0-2.394-0.134-3.529-0.464c-0.536-0.155-1.041-0.35-1.524-0.574
			c0.18-0.635,0.354-1.272,0.514-1.914c1.037-4.139,1.731-8.416,1.812-12.686c0.045-2.384,0.592-4.897-0.103-7.229
			C85.788,51.197,84.011,49.649,81.966,49.649z M78.183,71.475c-2.382-2.43-3.558-6.272-3.899-9.58
			c-0.033-0.319-0.054-0.638-0.062-0.958c-0.049-2.025,1.848-8.503,4.762-8.504c0.099,0,0.198,0.007,0.299,0.023
			c1.774,0.269,1.661,3.202,1.577,4.489C80.556,61.613,79.907,67.106,78.183,71.475L78.183,71.475z M131.953,110.965
			c4.113-11.495,7.808-22.452,11.958-33.934c1.791-4.955,3.733-9.919,6.337-14.511c0.803-1.416,1.64-3.96,3.367-4.563
			c0.294-0.103,0.555-0.149,0.785-0.149c1.683,0,1.788,2.474,1.575,3.823c-0.36,2.272-0.872,4.667-1.543,6.866
			c-1.142,3.745-2.734,7.415-4.296,11.002c-1.734,3.983-3.552,8.16-5.794,11.884c-0.084,0.139-0.166,0.278-0.249,0.418
			c-0.709,1.191-1.395,2.394-2.075,3.601c-0.687,1.219-1.363,2.445-2.053,3.663c-0.69,1.22-1.381,2.439-2.104,3.639
			c-0.72,1.195-1.452,2.382-2.236,3.537c-0.729,1.075-1.453,2.155-2.281,3.157C132.895,109.941,132.376,110.402,131.953,110.965
			L131.953,110.965z M252.689,75.801c0.861-1.428,1.77-2.829,2.76-4.185c1.886-2.581,5.372-7.486,8.646-8.33
			c0.227-0.059,0.451-0.087,0.666-0.087c1.212,0,2.177,0.9,2.25,2.358c0.085,1.672-1.874,4.662-2.895,5.903
			c-1.439,1.75-3.392,2.819-5.544,3.447C256.686,75.457,254.701,75.729,252.689,75.801L252.689,75.801z M100.452,93.68
			c-2.52-0.291-3.66-2.947-2.143-5.642c1.165-2.069,3.452-2.981,5.697-3.676C102.869,87.478,101.704,90.597,100.452,93.68
			L100.452,93.68z M183.148,91.674c-0.623,0-1.783-0.58-1.996-1.086c-0.226-0.536-0.441-1.077-0.654-1.62
			c0.635-0.492,1.294-0.873,1.971-1.059c0.256-0.07,0.498-0.103,0.722-0.103c1.234,0,1.934,0.999,1.474,2.305
			c-0.222,0.632-0.66,1.426-1.385,1.552C183.24,91.671,183.196,91.674,183.148,91.674L183.148,91.674z M237.766,123.918
			c-1.899,0-3.614-0.588-5.463-1.843c1.304-1.303,2.524-2.679,3.887-3.925c1.802-1.647,7.042-6.286,10.581-6.286
			c0.085,0,0.169,0.003,0.252,0.008c1.16,0.076,2.115,0.697,2.668,2.151c0.69,1.817-0.227,3.951-1.473,5.286
			c-1.783,1.911-4.739,3.435-7.226,4.123C239.834,123.752,238.775,123.918,237.766,123.918L237.766,123.918z M99.936,136.856
			c0.075,0,1.12-0.103,1.265-0.113c0.629-0.046,1.258-0.092,1.888-0.138c2.899-0.213,5.806-0.325,8.712-0.379
			c0.638-0.012,1.273-0.017,1.909-0.019c-1.228,2.031-2.541,4.01-3.959,5.92c-3.847,5.18-8.881,10.734-14.839,13.47
			c-1.619,0.744-3.386,1.292-5.167,1.292c-0.617,0-1.234-0.066-1.849-0.212c-1.552-0.368-4.899-1.915-5.607-3.468
			c-1.419-3.111-0.089-6.909,1.803-9.491c2.768-3.778,8.113-5.403,12.473-6.316c1.112-0.233,2.239-0.406,3.367-0.546
			C99.932,136.856,99.933,136.856,99.936,136.856L99.936,136.856z"/>
	</g>
</g>
</svg>
