<?xml version="1.0" encoding="utf-8"?>
<!-- Generator: Adobe Illustrator 18.1.1, SVG Export Plug-In . SVG Version: 6.00 Build 0)  -->
<!DOCTYPE svg PUBLIC "-//W3C//DTD SVG 1.1//EN" "http://www.w3.org/Graphics/SVG/1.1/DTD/svg11.dtd">
<svg version="1.1" id="Layer_1" xmlns="http://www.w3.org/2000/svg" xmlns:xlink="http://www.w3.org/1999/xlink" x="0px" y="0px"
	 width="300px" height="240px" viewBox="0 0 300 240" enable-background="new 0 0 300 240" xml:space="preserve">
<g>
	<g>
		<path fill="#18140C" d="M133.732,106.819c-0.236-0.236-0.449-0.494-0.637-0.772c-0.184-0.272-0.342-0.563-0.473-0.869
			c-0.131,0.306-0.289,0.597-0.473,0.869c-0.187,0.277-0.401,0.536-0.637,0.772c-0.354,0.354-0.758,0.657-1.202,0.898
			c-0.236,0.128-0.485,0.231-0.741,0.322c0.613,1.087,1.765,1.832,3.1,1.832c1.324,0,2.469-0.733,3.086-1.806
			c-0.284-0.096-0.562-0.207-0.822-0.348C134.49,107.476,134.086,107.173,133.732,106.819z"/>
		<path fill="#18140C" d="M123.029,105.178c-0.064,0.15-0.134,0.297-0.212,0.439c-0.241,0.443-0.544,0.848-0.898,1.202
			c-0.354,0.354-0.758,0.657-1.202,0.898c-0.235,0.128-0.485,0.233-0.74,0.324c0.613,1.087,1.765,1.83,3.099,1.83
			c1.323,0,2.468-0.732,3.085-1.804C124.752,107.591,123.609,106.536,123.029,105.178z"/>
		<path fill="#18140C" d="M133.732,100.559c-0.236-0.236-0.449-0.494-0.637-0.772c-0.184-0.272-0.342-0.563-0.473-0.869
			c-0.131,0.306-0.289,0.597-0.473,0.869c-0.187,0.277-0.401,0.536-0.637,0.772c-0.354,0.354-0.758,0.657-1.202,0.898
			c-0.236,0.128-0.485,0.231-0.741,0.322c0.613,1.087,1.765,1.832,3.1,1.832c1.324,0,2.469-0.733,3.086-1.806
			c-0.284-0.096-0.562-0.207-0.822-0.348C134.49,101.216,134.086,100.913,133.732,100.559z"/>
		<path fill="#18140C" d="M133.732,94.166c-0.236-0.236-0.449-0.494-0.637-0.772c-0.184-0.272-0.342-0.563-0.473-0.869
			c-0.131,0.306-0.289,0.597-0.473,0.869c-0.187,0.277-0.401,0.536-0.637,0.772c-0.354,0.354-0.758,0.657-1.202,0.898
			c-0.236,0.128-0.485,0.231-0.741,0.322c0.613,1.087,1.765,1.832,3.1,1.832c1.324,0,2.469-0.733,3.086-1.806
			c-0.284-0.096-0.562-0.207-0.822-0.348C134.49,94.823,134.086,94.52,133.732,94.166z"/>
		<path fill="#18140C" d="M138.661,103.616c-0.236-0.236-0.449-0.494-0.637-0.772c-0.184-0.272-0.342-0.563-0.473-0.869
			c-0.131,0.306-0.289,0.597-0.473,0.869c-0.187,0.277-0.401,0.536-0.637,0.772c-0.354,0.354-0.758,0.657-1.202,0.898
			c-0.236,0.128-0.485,0.231-0.741,0.322c0.613,1.087,1.765,1.832,3.1,1.832c1.324,0,2.469-0.733,3.086-1.806
			c-0.284-0.096-0.562-0.207-0.822-0.348C139.419,104.273,139.014,103.969,138.661,103.616z"/>
		<path fill="#18140C" d="M127.958,101.975c-0.064,0.15-0.134,0.297-0.212,0.439c-0.241,0.443-0.544,0.848-0.898,1.202
			c-0.354,0.354-0.758,0.657-1.202,0.898c-0.235,0.128-0.485,0.233-0.74,0.324c0.613,1.087,1.765,1.83,3.099,1.83
			c1.323,0,2.468-0.732,3.085-1.804C129.681,104.388,128.538,103.333,127.958,101.975z"/>
		<path fill="#18140C" d="M138.661,110.169c-0.236-0.236-0.449-0.494-0.637-0.772c-0.184-0.272-0.342-0.563-0.473-0.869
			c-0.131,0.306-0.289,0.597-0.473,0.869c-0.187,0.277-0.401,0.536-0.637,0.772c-0.354,0.354-0.758,0.657-1.202,0.898
			c-0.236,0.128-0.485,0.231-0.741,0.322c0.613,1.087,1.765,1.832,3.1,1.832c1.324,0,2.469-0.733,3.086-1.806
			c-0.284-0.096-0.562-0.207-0.822-0.348C139.419,110.826,139.014,110.523,138.661,110.169z"/>
		<path fill="#18140C" d="M127.958,108.528c-0.064,0.15-0.134,0.297-0.212,0.439c-0.241,0.443-0.544,0.848-0.898,1.202
			c-0.354,0.354-0.758,0.657-1.202,0.898c-0.235,0.128-0.485,0.233-0.74,0.324c0.613,1.087,1.765,1.83,3.099,1.83
			c1.323,0,2.468-0.732,3.085-1.804C129.681,110.941,128.538,109.886,127.958,108.528z"/>
		<path fill="#18140C" d="M118.364,108.528c-0.569,1.332-1.682,2.37-3.054,2.858c0.612,1.089,1.766,1.835,3.102,1.835
			c1.323,0,2.468-0.732,3.085-1.804C120.087,110.941,118.944,109.886,118.364,108.528z"/>
		<path fill="#18140C" d="M142.216,111.583c-0.569,1.332-1.682,2.369-3.054,2.858c0.612,1.089,1.766,1.835,3.102,1.835
			c1.323,0,2.468-0.732,3.085-1.804C143.939,113.996,142.796,112.941,142.216,111.583z"/>
		<path fill="#18140C" d="M133.732,113.224c-0.236-0.236-0.449-0.494-0.637-0.772c-0.184-0.272-0.342-0.563-0.473-0.869
			c-0.131,0.306-0.289,0.597-0.473,0.869c-0.187,0.277-0.401,0.536-0.637,0.772c-0.354,0.354-0.758,0.657-1.202,0.898
			c-0.236,0.128-0.485,0.231-0.741,0.322c0.613,1.087,1.765,1.832,3.1,1.832c1.324,0,2.469-0.733,3.086-1.806
			c-0.284-0.096-0.562-0.207-0.822-0.348C134.49,113.881,134.086,113.578,133.732,113.224z"/>
		<path fill="#18140C" d="M123.029,111.583c-0.064,0.15-0.134,0.297-0.212,0.439c-0.241,0.443-0.544,0.848-0.898,1.202
			c-0.354,0.354-0.758,0.657-1.202,0.898c-0.235,0.128-0.485,0.233-0.74,0.324c0.613,1.087,1.765,1.83,3.099,1.83
			c1.323,0,2.468-0.732,3.085-1.804C124.752,113.996,123.609,112.941,123.029,111.583z"/>
		<path fill="#18140C" d="M138.661,116.281c-0.236-0.236-0.449-0.494-0.637-0.772c-0.184-0.272-0.342-0.563-0.473-0.869
			c-0.131,0.306-0.289,0.597-0.473,0.869c-0.187,0.277-0.401,0.536-0.637,0.772c-0.354,0.354-0.758,0.657-1.202,0.898
			c-0.236,0.128-0.485,0.231-0.741,0.322c0.613,1.087,1.765,1.832,3.1,1.832c1.324,0,2.469-0.733,3.086-1.806
			c-0.284-0.096-0.562-0.207-0.822-0.348C139.419,116.938,139.014,116.635,138.661,116.281z"/>
		<path fill="#18140C" d="M127.958,114.64c-0.064,0.15-0.134,0.297-0.212,0.439c-0.241,0.443-0.544,0.848-0.898,1.202
			c-0.354,0.354-0.758,0.657-1.202,0.898c-0.235,0.128-0.485,0.233-0.74,0.324c0.613,1.087,1.765,1.83,3.099,1.83
			c1.323,0,2.468-0.732,3.085-1.804C129.681,117.053,128.538,115.998,127.958,114.64z"/>
		<path fill="#18140C" d="M118.364,114.64c-0.569,1.332-1.682,2.37-3.054,2.858c0.612,1.089,1.766,1.835,3.102,1.835
			c1.323,0,2.468-0.732,3.085-1.804C120.087,117.053,118.944,115.998,118.364,114.64z"/>
		<path fill="#18140C" d="M127.876,95.732c-0.064,0.15-0.134,0.297-0.212,0.439c-0.241,0.443-0.544,0.848-0.898,1.202
			c-0.354,0.354-0.758,0.657-1.202,0.898c-0.235,0.128-0.485,0.233-0.74,0.324c0.613,1.087,1.765,1.83,3.099,1.83
			c1.323,0,2.468-0.732,3.085-1.804C129.598,98.145,128.456,97.09,127.876,95.732z"/>
		<path fill="#18140C" d="M118.412,106.668c1.323,0,2.468-0.732,3.085-1.804c-0.791-0.267-1.493-0.721-2.063-1.304l-1.746,3.025
			C117.922,106.634,118.162,106.668,118.412,106.668z"/>
		<path fill="#18140C" d="M142.264,109.871c0.787,0,1.507-0.263,2.094-0.698l-2.217-3.841c-0.587,1.257-1.66,2.235-2.978,2.704
			C139.774,109.125,140.928,109.871,142.264,109.871z"/>
		<path fill="#18140C" d="M137.516,100.425c0.567,0,1.098-0.141,1.572-0.379l-2.042-3.537c-0.019,0.029-0.031,0.063-0.05,0.092
			c-0.187,0.277-0.401,0.536-0.637,0.772c-0.354,0.354-0.758,0.657-1.202,0.898c-0.236,0.128-0.485,0.231-0.741,0.322
			C135.03,99.68,136.182,100.425,137.516,100.425z"/>
		<path fill="#18140C" d="M130.763,85h0.145l-0.633-0.658l-1.379,2.169C129.65,86.293,130.302,86,130.763,85z"/>
		<path fill="#18140C" d="M132.67,90.647c0.319,0,0.627-0.045,0.92-0.124l-1.85-3.204c-0.078,0.09-0.143,0.191-0.228,0.276
			c-0.354,0.354-0.758,0.657-1.202,0.898c-0.236,0.128-0.485,0.231-0.741,0.322C130.183,89.902,131.335,90.647,132.67,90.647z"/>
		<path fill="#18140C" d="M127.923,94.005c1.323,0,2.468-0.732,3.085-1.804c-1.409-0.476-2.552-1.531-3.132-2.889
			c-0.064,0.15-0.134,0.297-0.212,0.439c-0.241,0.443-0.544,0.848-0.898,1.202c-0.034,0.034-0.074,0.061-0.108,0.094l-1.149,1.99
			C126.143,93.632,126.985,94.005,127.923,94.005z"/>
		<path fill="#18140C" d="M123.077,103.611c1.323,0,2.468-0.732,3.085-1.804c-1.409-0.476-2.552-1.531-3.132-2.889
			c-0.064,0.15-0.134,0.297-0.212,0.439c-0.241,0.443-0.544,0.848-0.898,1.202c-0.354,0.354-0.758,0.657-1.202,0.898
			c-0.03,0.016-0.064,0.026-0.094,0.041l-0.39,0.675C120.883,103.042,121.91,103.611,123.077,103.611z"/>
		<path fill="#18140C" d="M126.162,95.414c-0.564-0.19-1.083-0.477-1.543-0.836l-1.523,2.639
			C124.411,97.21,125.547,96.481,126.162,95.414z"/>
		<path fill="#18140C" d="M134.974,92.92l-0.457-0.791c-0.035,0.013-0.066,0.031-0.101,0.044
			C134.57,92.445,134.758,92.696,134.974,92.92z"/>
		<path fill="#18140C" d="M141.009,103.372l-1.114-1.93c-0.235,0.127-0.478,0.243-0.733,0.333
			C139.571,102.503,140.224,103.07,141.009,103.372z"/>
		<path fill="#18140C" d="M145.282,110.774c-0.368,0.25-0.765,0.46-1.192,0.612c0.531,0.945,1.47,1.63,2.582,1.795L145.282,110.774z
			"/>
		<path fill="#18140C" d="M149.645,117.964l-0.978-1.51c-0.657-0.53-1.187-1.119-1.523-1.906c-0.569,1.332-1.682,2.048-3.054,2.537
			c0.28,0.499,0.678,0.915,1.151,0.915h3.901C149.322,118,149.49,118.113,149.645,117.964z"/>
		<path fill="#18140C" d="M142.973,118.676c-0.305-0.5-0.565-0.786-0.757-1.237c-0.192,0.45-0.451,0.737-0.757,1.237H142.973z"/>
		<path fill="#18140C" d="M133.399,118.676c-0.101,0-0.214-0.206-0.303-0.338c-0.184-0.272-0.342-0.549-0.473-0.855
			c-0.131,0.306-0.289,0.575-0.473,0.847c-0.089,0.132-0.203,0.346-0.303,0.346H133.399z"/>
		<path fill="#18140C" d="M123.786,118.676c-0.305-0.5-0.565-0.757-0.757-1.208c-0.064,0.15-0.134,0.282-0.212,0.425
			c-0.155,0.285-0.344,0.783-0.548,0.783H123.786z"/>
		<path fill="#18140C" d="M114.193,118.676c-0.305-0.5-0.565-0.786-0.757-1.237c-0.192,0.45-0.451,0.737-0.757,1.237H114.193z"/>
		<path fill="#18140C" d="M113.483,116.276c1.323,0,2.468-0.732,3.085-1.804c-0.974-0.329-1.815-0.938-2.437-1.729l-1.902,3.295
			C112.619,116.187,113.04,116.276,113.483,116.276z"/>
	</g>
	<linearGradient id="SVGID_1_" gradientUnits="userSpaceOnUse" x1="63.0669" y1="141.0661" x2="44.8425" y2="109.5005">
		<stop  offset="0" style="stop-color:#18140C;stop-opacity:0"/>
		<stop  offset="1" style="stop-color:#18140C;stop-opacity:0.5"/>
	</linearGradient>
	<polygon opacity="0.2" fill="url(#SVGID_1_)" points="49.75,148.755 59.564,133.377 69.378,118 49.75,118 30.121,118 
		39.935,133.377 	"/>
	<linearGradient id="SVGID_2_" gradientUnits="userSpaceOnUse" x1="103.3167" y1="141.0661" x2="85.0923" y2="109.5005">
		<stop  offset="0" style="stop-color:#18140C;stop-opacity:0"/>
		<stop  offset="1" style="stop-color:#18140C;stop-opacity:0.5"/>
	</linearGradient>
	<polygon opacity="0.2" fill="url(#SVGID_2_)" points="89.999,148.755 99.814,133.377 109.628,118 89.999,118 70.371,118 
		80.185,133.377 	"/>
	<linearGradient id="SVGID_3_" gradientUnits="userSpaceOnUse" x1="143.5665" y1="141.0661" x2="125.3421" y2="109.5005">
		<stop  offset="0" style="stop-color:#18140C;stop-opacity:0"/>
		<stop  offset="1" style="stop-color:#18140C;stop-opacity:0.5"/>
	</linearGradient>
	<polygon opacity="0.2" fill="url(#SVGID_3_)" points="130.249,148.755 140.064,133.377 149.878,118 130.249,118 110.621,118 
		120.435,133.377 	"/>
	<linearGradient id="SVGID_4_" gradientUnits="userSpaceOnUse" x1="183.3234" y1="141.0661" x2="165.099" y2="109.5005">
		<stop  offset="0" style="stop-color:#18140C;stop-opacity:0"/>
		<stop  offset="1" style="stop-color:#18140C;stop-opacity:0.5"/>
	</linearGradient>
	<polygon opacity="0.2" fill="url(#SVGID_4_)" points="170.006,148.755 179.821,133.377 189.635,118 170.006,118 150.377,118 
		160.192,133.377 	"/>
	<linearGradient id="SVGID_5_" gradientUnits="userSpaceOnUse" x1="223.4089" y1="141.0661" x2="205.1845" y2="109.5005">
		<stop  offset="0" style="stop-color:#18140C;stop-opacity:0"/>
		<stop  offset="1" style="stop-color:#18140C;stop-opacity:0.5"/>
	</linearGradient>
	<polygon opacity="0.2" fill="url(#SVGID_5_)" points="210.092,148.755 219.906,133.377 229.72,118 210.092,118 190.463,118 
		200.277,133.377 	"/>
	<linearGradient id="SVGID_6_" gradientUnits="userSpaceOnUse" x1="263.4944" y1="141.0661" x2="245.27" y2="109.5005">
		<stop  offset="0" style="stop-color:#18140C;stop-opacity:0"/>
		<stop  offset="1" style="stop-color:#18140C;stop-opacity:0.5"/>
	</linearGradient>
	<polygon opacity="0.2" fill="url(#SVGID_6_)" points="250.177,148.755 259.991,133.377 269.806,118 250.177,118 230.548,118 
		240.363,133.377 	"/>
	<g>
		<g>
			<path fill="#18140C" d="M89.387,149.048H78.509l-2.623,6.265h-1.857l9.168-21.496H84.7l9.168,21.496h-1.857L89.387,149.048z
				 M88.709,147.482l-3.803-9.059c-0.442-1.106-0.914-2.488-0.943-2.488h-0.03c-0.029,0-0.501,1.382-0.943,2.488l-3.803,9.059
				H88.709z"/>
			<path fill="#18140C" d="M93.992,155.394h-2.036l-0.021-0.051l-2.603-6.214H78.563l-2.624,6.265h-2.036l0.049-0.114l9.19-21.546
				h1.612l0.021,0.05L93.992,155.394z M92.065,155.23h1.678l-9.098-21.331H83.25l-9.098,21.331h1.679l2.624-6.265h10.987
				l0.021,0.051L92.065,155.23z M88.833,147.564h-9.769l3.85-9.173c0.235-0.587,0.481-1.259,0.66-1.749
				c0.288-0.789,0.288-0.789,0.359-0.789h0.03c0.071,0,0.071,0,0.363,0.798c0.178,0.488,0.423,1.157,0.657,1.742L88.833,147.564z
				 M79.31,147.399h9.275l-3.755-8.945c-0.235-0.588-0.48-1.258-0.659-1.748c-0.087-0.238-0.171-0.468-0.223-0.603
				c-0.052,0.134-0.134,0.36-0.22,0.595c-0.179,0.491-0.426,1.164-0.662,1.755L79.31,147.399z"/>
		</g>
		<g>
			<path fill="#18140C" d="M109.374,155.312l-4.923-8.383c-0.442,0.062-0.914,0.092-1.386,0.092h-4.186v8.291h-1.681v-21.496h5.866
				c4.717,0,7.577,2.549,7.577,6.633c0,3.132-1.651,5.281-4.481,6.141l5.129,8.721H109.374z M103.153,145.455
				c3.744,0,5.749-2.057,5.749-5.005c0-3.163-2.211-4.944-5.749-4.944h-4.274v9.949H103.153z"/>
			<path fill="#18140C" d="M111.433,155.394h-2.107l-0.024-0.041l-4.896-8.337c-0.426,0.057-0.878,0.086-1.342,0.086h-4.104v8.291
				h-1.845v-21.66h5.949c4.724,0,7.659,2.573,7.659,6.715c0,3.086-1.576,5.28-4.44,6.189L111.433,155.394z M109.421,155.23h1.725
				l-5.109-8.687l0.099-0.03c2.852-0.867,4.423-3.02,4.423-6.063c0-4.041-2.872-6.551-7.494-6.551h-5.784v21.331h1.516v-8.291h4.268
				c0.477,0,0.94-0.031,1.375-0.091l0.054-0.008l0.028,0.047L109.421,155.23z M103.153,145.537h-4.357v-10.114h4.357
				c3.651,0,5.831,1.879,5.831,5.026C108.984,143.588,106.75,145.537,103.153,145.537z M98.961,145.372h4.192
				c3.548,0,5.667-1.84,5.667-4.923c0-3.045-2.118-4.862-5.667-4.862h-4.192V145.372z"/>
		</g>
		<g>
			<path fill="#18140C" d="M128.801,133.816v1.689h-7.075v19.807h-1.71v-19.807h-7.045v-1.689H128.801z"/>
			<path fill="#18140C" d="M121.808,155.394h-1.875v-19.807h-7.045v-1.853h15.995v1.853h-7.075V155.394z M120.098,155.23h1.546
				v-19.807h7.075v-1.525h-15.666v1.525h7.045V155.23z"/>
		</g>
		<g>
			<path fill="#18140C" d="M132.455,155.312v-21.496h1.681v21.496H132.455z"/>
			<path fill="#18140C" d="M134.218,155.394h-1.845v-21.66h1.845V155.394z M132.538,155.23h1.516v-21.331h-1.516V155.23z"/>
		</g>
		<g>
			<path fill="#18140C" d="M141.594,135.505v8.107h9.168v1.628h-9.168v10.072h-1.681v-21.496h13.119v1.689H141.594z"/>
			<path fill="#18140C" d="M141.676,155.394h-1.845v-21.66h13.283v1.853h-11.438v7.943h9.168v1.792h-9.168V155.394z M139.995,155.23
				h1.516v-10.072h9.168v-1.463h-9.168v-8.272h11.438v-1.525h-12.954V155.23z"/>
		</g>
		<g>
			<path fill="#18140C" d="M156.922,155.312v-21.496h1.681v21.496H156.922z"/>
			<path fill="#18140C" d="M158.685,155.394h-1.845v-21.66h1.845V155.394z M157.005,155.23h1.516v-21.331h-1.516V155.23z"/>
		</g>
		<g>
			<path fill="#18140C" d="M181.037,139.467c-1.533-2.703-4.422-4.361-7.665-4.361c-5.071,0-8.962,3.808-8.962,9.458
				c0,5.589,3.95,9.428,8.962,9.428c3.508,0,6.515-1.965,7.989-4.975l1.681,0.491c-1.71,3.808-5.366,6.234-9.669,6.234
				c-5.926,0-10.701-4.698-10.701-11.178c0-6.48,4.776-11.178,10.701-11.178c4.039,0,7.517,2.211,9.374,5.62L181.037,139.467z"/>
			<path fill="#18140C" d="M173.372,155.824c-6.147,0-10.784-4.841-10.784-11.26c0-6.419,4.636-11.26,10.784-11.26
				c3.983,0,7.514,2.117,9.446,5.663l0.05,0.091l-1.871,0.505l-0.031-0.055c-1.534-2.705-4.373-4.319-7.593-4.319
				c-5.145,0-8.88,3.943-8.88,9.376c0,5.415,3.735,9.345,8.88,9.345c3.393,0,6.426-1.888,7.915-4.929l0.03-0.062l1.837,0.537
				l-0.038,0.086C181.376,153.417,177.642,155.824,173.372,155.824z M173.372,133.469c-6.054,0-10.619,4.77-10.619,11.096
				c0,6.326,4.565,11.096,10.619,11.096c4.173,0,7.826-2.334,9.555-6.099l-1.524-0.445c-1.527,3.06-4.598,4.959-8.032,4.959
				c-5.241,0-9.044-4-9.044-9.51c0-5.528,3.803-9.54,9.044-9.54c3.258,0,6.134,1.624,7.704,4.347l1.547-0.417
				C180.71,135.517,177.26,133.469,173.372,133.469z"/>
		</g>
		<g>
			<path fill="#18140C" d="M186.401,155.312v-21.496h1.68v21.496H186.401z"/>
			<path fill="#18140C" d="M188.163,155.394h-1.845v-21.66h1.845V155.394z M186.483,155.23h1.516v-21.331h-1.516V155.23z"/>
		</g>
		<g>
			<path fill="#18140C" d="M206.771,149.048h-10.878l-2.624,6.265h-1.857l9.168-21.496h1.504l9.168,21.496h-1.857L206.771,149.048z
				 M206.093,147.482l-3.803-9.059c-0.442-1.106-0.914-2.488-0.943-2.488h-0.03c-0.029,0-0.501,1.382-0.943,2.488l-3.803,9.059
				H206.093z"/>
			<path fill="#18140C" d="M211.376,155.394h-2.036l-0.021-0.051l-2.603-6.214h-10.769l-2.624,6.265h-2.036l0.049-0.114l9.19-21.546
				h1.612l0.021,0.05L211.376,155.394z M209.45,155.23h1.678l-9.098-21.331h-1.395l-9.098,21.331h1.679l2.624-6.265h10.987
				l0.021,0.051L209.45,155.23z M206.217,147.564h-9.769l3.85-9.173c0.235-0.587,0.48-1.259,0.66-1.749
				c0.288-0.789,0.288-0.789,0.359-0.789h0.03c0.071,0,0.071,0,0.363,0.798c0.178,0.488,0.423,1.157,0.657,1.742L206.217,147.564z
				 M196.695,147.399h9.275l-3.755-8.945c-0.235-0.588-0.48-1.258-0.659-1.748c-0.087-0.238-0.171-0.468-0.223-0.603
				c-0.052,0.134-0.134,0.36-0.22,0.595c-0.179,0.491-0.426,1.164-0.662,1.755L196.695,147.399z"/>
		</g>
		<g>
			<path fill="#18140C" d="M227.701,153.623v1.689h-13.119v-21.496h1.681v19.807H227.701z"/>
			<path fill="#18140C" d="M227.784,155.394H214.5v-21.66h1.845v19.807h11.438V155.394z M214.665,155.23h12.954v-1.525h-11.438
				v-19.807h-1.516V155.23z"/>
		</g>
	</g>
	<g>
		<g>
			<polygon fill="#18140C" points="44.583,103.328 41.46,97.735 30,118 36.246,118 			"/>
		</g>
		<g>
			<polygon fill="#18140C" points="57.746,97.702 46.286,118 69.206,118 			"/>
		</g>
		<g>
			<polygon fill="#18140C" points="52.726,103.328 49.603,97.735 38.143,118 44.389,118 			"/>
		</g>
		<g>
			<path fill="#18140C" d="M49.611,91.851c0.173,3.901,3.386,5.022,7.328,5.031l-3.668-6.353l-2.691-4.661l-0.977-1.693
				l-0.969,1.678l-2.699,4.675l-3.668,6.353h0C46.216,96.882,49.438,95.757,49.611,91.851z"/>
		</g>
	</g>
	<g>
		<g>
			<g>
				<polygon fill="#18140C" points="270,118.511 266.66,112.791 266.66,112.791 				"/>
			</g>
			<g>
				<path fill="#18140C" d="M266.66,113h-1.041c-5.884,0-10.239-1.58-13.05-3.949L247.08,118h6.634l0,0h4.826H270L266.66,113z"/>
			</g>
			<g>
				<path fill="#191617" d="M245.732,108.965c-0.685,0.399-1.432,0.735-2.23,1.015C244.3,109.701,245.047,109.365,245.732,108.965z"
					/>
			</g>
			<g>
				<path fill="#18140C" d="M234.136,113l-3.341,5h11.46h2.929l0.474-0.455l3.791-6.328l-1.217-1.939
					c-2.818,2.359-7.177,3.721-13.06,3.721H234.136z"/>
			</g>
			<g>
				<g>
					<path fill="#18140C" d="M250.404,85c-0.002,0-0.003,0-0.005,0C246.784,91,237,108.499,235,111.15v-0.002
						c4,0,7.499-0.344,10.653-2.182c3.014-1.756,4.572-4.844,4.724-8.262c0.148,3.333,1.589,6.315,4.468,8.108
						c3.169,1.973,7.173,2.298,10.819,2.306C265.664,111.118,251.769,87,250.404,85z"/>
				</g>
			</g>
			<g>
				<path fill="#18140C" d="M259.846,110.645c-0.891-0.174-1.739-0.397-2.535-0.676
					C258.107,110.248,258.955,110.471,259.846,110.645z"/>
			</g>
			<g>
				<path fill="#18140C" d="M265.623,111.145L265.623,111.145c-2.045-0.005-3.996-0.153-5.777-0.501
					C261.627,110.992,263.577,111.141,265.623,111.145z"/>
			</g>
		</g>
	</g>
	<g>
		<g>
			<g>
				<path fill="#18140C" d="M99.519,101.833c-3.252-5.633-6.505-11.267-9.757-16.9c-3.439,5.957-6.879,11.915-10.318,17.872
					c-1.644,2.848-3.289,5.696-4.933,8.545c8.473-0.792,14.876-4.252,15.274-13.196c0.162,3.637,1.48,7.126,4.367,9.461
					c3.037,2.456,7.052,3.361,10.857,3.725L99.519,101.833z"/>
			</g>
			<g>
				<path fill="#18140C" d="M89.784,105.349c0.195,4.387,2.122,8.318,5.987,10.575c4.014,2.343,8.95,2.799,13.505,2.809l-3.274-5.67
					c-8.251-0.573-13.68-3.316-16.216-8.2l-0.035,0.018"/>
			</g>
			<g>
				<path fill="#18140C" d="M89.719,105.349c-0.195,4.387-2.122,8.318-5.987,10.575c-4.014,2.343-8.95,2.799-13.505,2.809
					l3.274-5.67c8.251-0.573,13.68-3.316,16.216-8.2l0.035,0.018"/>
			</g>
		</g>
	</g>
	<g>
		<g>
			<path fill="#18140C" d="M213.46,90.59c-0.001-0.002-0.003-0.003-0.004-0.005l-3.218-5.582l-4.424,7.714
				c0.921,1.478,2.555,2.438,4.424,2.438c1.869,0,3.504-0.999,4.424-2.477L213.46,90.59z"/>
		</g>
		<g>
			<path fill="#18140C" d="M223.952,108.278c-1.253,1.184-2.942,2.156-4.782,2.156c-0.123,0-0.245,0.136-0.368,0.129l4.319,7.048
				l0.474,0.389h6.246L223.952,108.278z"/>
		</g>
		<g>
			<path fill="#18140C" d="M214.292,108.718c-0.999,0.978-2.277,1.629-3.678,1.858l4.364,7.081l0.474,0.343h6.246l-5.055-8.277
				C215.761,109.387,214.952,109.364,214.292,108.718z"/>
		</g>
		<g>
			<path fill="#18140C" d="M204.74,108.718c-0.033,0.033-0.07,0.061-0.104,0.093c-0.805,0.759-1.765,1.312-2.826,1.609
				c-0.578,0.162-1.183,0.253-1.812,0.253c-1.452,0-2.781-0.935-3.87-1.707L190.636,118h0.128l5.364-9.291L190.764,118h6.117h1.897
				h3.317h8.143h3.317l-4.809-7.852C207.214,109.977,205.82,109.775,204.74,108.718z"/>
		</g>
		<g>
			<path fill="#18140C" d="M200.004,108c0.43,0,0.838,0.45,1.231,0.351c0.805-0.201,1.526-0.33,2.121-0.867l-0.023,0.169
				c0.478-0.414,0.877-0.856,1.184-1.417c0.853,1.725,2.573,2.928,4.752,2.928c2.396,0,4.235-1.407,4.978-3.417
				c0.799,1.878,2.583,3.191,4.879,3.191c0,0,1.728-0.346,2.285-0.532c0.664-0.222,1.215-0.685,1.688-1.202
				c0.001,0,0.002,0.003,0.002,0.002l-0.001-0.04c-0.013,0.015-0.029,0.027-0.042,0.042l-3.018-5.228l-4.476-7.753
				c-1.258,1.551-3.177,2.546-5.325,2.546c-2.148,0-4.067-0.995-5.325-2.546l-1.869,3.237l-0.949,1.643l-5.141,8.389
				c0.844,0.637,1.891,0.503,3.046,0.503H200.004z"/>
		</g>
	</g>
	<g>
		<path fill="#18140C" d="M174.142,91.818l-4.063-7.037l-4.255,7.371c1.014,1.083,2.493,1.774,4.017,1.774
			C171.514,93.925,173.134,93.09,174.142,91.818z"/>
		<path fill="#18140C" d="M177.223,97l-2.286-3.735c-1.286,1.356-3.108,2.324-5.096,2.324c-1.836,0-3.531-0.898-4.794-2.077
			L162.936,97H177.223z"/>
		<polygon fill="#18140C" points="159.013,103 181.146,103 178.3,99 161.859,99 		"/>
		<polygon fill="#18140C" points="156.642,108 183.517,108 182.094,105 158.065,105 		"/>
		<polygon fill="#18140C" points="150.477,118 189.682,118 184.466,109 155.693,109 		"/>
	</g>
	<g>
		<g>
			<path fill="#18140C" d="M59.976,133.732v0.632h-1.929v5.115h-0.665v-5.115h-1.921v-0.632H59.976z"/>
		</g>
		<g>
			<path fill="#18140C" d="M65.405,133.732v5.747H64.74v-2.66h-3.145v2.66h-0.673v-5.747h0.673v2.455h3.145v-2.455H65.405z"/>
		</g>
		<g>
			<path fill="#18140C" d="M70.827,138.847v0.632h-3.883v-5.747h3.834v0.632h-3.161v1.773h2.536v0.599h-2.536v2.11H70.827z"/>
		</g>
	</g>
</g>
</svg>
