<?xml version="1.0" encoding="utf-8"?>
<!-- Generator: Adobe Illustrator 18.1.1, SVG Export Plug-In . SVG Version: 6.00 Build 0)  -->
<!DOCTYPE svg PUBLIC "-//W3C//DTD SVG 1.1//EN" "http://www.w3.org/Graphics/SVG/1.1/DTD/svg11.dtd">
<svg version="1.1" id="Layer_1" xmlns="http://www.w3.org/2000/svg" xmlns:xlink="http://www.w3.org/1999/xlink" x="0px" y="0px"
	 width="300px" height="240px" viewBox="0 0 300 240" enable-background="new 0 0 300 240" xml:space="preserve">
<g>
	<rect x="152" y="76" fill="#18140C" width="4" height="5"/>
	<rect x="47" y="130" fill="#18140C" width="5" height="4"/>
	<rect x="91" y="130" fill="#18140C" width="4" height="4"/>
	<rect x="108" y="130" fill="#18140C" width="5" height="4"/>
	<polygon fill="#18140C" points="121,130 121,134 126,134 126,138.317 126,143 121,143 121,147 126,147 126,152 130,152 
		130,147.045 130,142.681 130,138.317 130,133.954 130,130 126,130 	"/>
	<rect x="139" y="130" fill="#18140C" width="4" height="4"/>
	<polygon fill="#18140C" points="152,130 152,133.954 152,139 156.545,139 161,139 161,133.954 161,130 156.545,130 	"/>
	<polygon fill="#18140C" points="169,134 165,134 165,138.317 165,143 169,143 169,139 174,139 174,133.954 174,130 169,130 	"/>
	<rect x="178" y="130" fill="#18140C" width="4" height="4"/>
	<polygon fill="#18140C" points="196,130 196,134 191.455,134 187.091,134 182,134 182,138.317 182,143 187,143 187,139 
		191.455,139 195.818,139 200.182,139 204,139 204,133.954 204,130 200.182,130 	"/>
	<polygon fill="#18140C" points="209,130 209,134 213.273,134 217,134 217,130 213.273,130 	"/>
	<polygon fill="#18140C" points="226,134 222,134 222,138.317 222,143 226.364,143 230,143 230,138.317 230,133.954 230,130 
		226,130 	"/>
	<polygon fill="#18140C" points="239,130 239,134 235,134 235,139 239.455,139 244,139 244,142.681 244,147 248,147 248,142.681 
		248,138.317 248,133.954 248,130 243.818,130 	"/>
	<polygon fill="#18140C" points="117,85 117,81 121.636,81 126,81 126,76 121.636,76 117.273,76 113,76 113,81 108,81 108,85 
		112.909,85 	"/>
	<polygon fill="#18140C" points="143,80.499 143,76 139,76 139,81 134,81 134,84.863 134,89 139.091,89 143,89 143,84.863 	"/>
	<rect x="156" y="81" fill="#18140C" width="5" height="4"/>
	<polygon fill="#18140C" points="174,85 178,85 178,81 182.727,81 187.091,81 191,81 191,76 187.091,76 182.727,76 178.364,76 
		174,76 169,76 169,81 165,81 165,85 169.636,85 	"/>
	<rect x="43" y="134" fill="#18140C" width="4" height="5"/>
	<rect x="60" y="134" fill="#18140C" width="5" height="5"/>
	<polygon fill="#18140C" points="78,139 78,143 82,143 82,138.317 82,134 78,134 78,130 73,130 73,134 69,134 69,139 73.636,139 	
		"/>
	<rect x="95" y="134" fill="#18140C" width="5" height="5"/>
	<rect x="104" y="134" fill="#18140C" width="4" height="5"/>
	<rect x="113" y="134" fill="#18140C" width="4" height="5"/>
	<polygon fill="#18140C" points="257,134 261,134 261,130 256.909,130 252,130 252,133.954 252,139 257,139 	"/>
	<rect x="117" y="85" fill="#18140C" width="4" height="4"/>
	<path fill="#18140C" d="M156,89v-4h-4v4h-4.182H143v5h5v4h4v4.317V107h4v4h5v-4.319v-4.364v-4.364V93.59V89H156z M156,98h-4v-4h4
		V98z"/>
	<polygon fill="#18140C" points="100,142.681 100,147 104,147 104,142.681 104,139 100,139 	"/>
	<rect x="139" y="139" fill="#18140C" width="4" height="4"/>
	<polygon fill="#18140C" points="52,147.045 52,151.408 52,156 56,156 56,151.408 56,147.045 56,143 52,143 	"/>
	<polygon fill="#18140C" points="69,142.681 69,139 65,139 65,142.681 65,147 69,147 	"/>
	<rect x="178" y="143" fill="#18140C" width="4" height="4"/>
	<polygon fill="#18140C" points="209,143 209,147.045 209,152 213,152 213,156 217,156 217,151.408 217,147.045 217,143 
		213.273,143 	"/>
	<polygon fill="#18140C" points="257,143 252,143 252,147.045 252,152 257,152 257,147.045 	"/>
	<polygon fill="#18140C" points="38,147 38,142.681 38,138.317 38,134 34.364,134 30,134 30,139 34,139 34,143 30,143 30,147 
		34,147 34,152 30,152 30,155.772 30,160.135 30,165 34,165 34,160 38,160 38,155.772 38,152 43,152 43,156 47,156 47,151.408 
		47,147 43.091,147 	"/>
	<polygon fill="#18140C" points="65,147 60,147 60,151.408 60,155.772 60,160.135 60,165 65,165 65,160 69,160 69,155.772 69,152 
		65,152 	"/>
	<rect x="69" y="147" fill="#18140C" width="4" height="5"/>
	<polygon fill="#18140C" points="148,147 143.455,147 139.091,147 134,147 134,151.408 134,156 139,156 139,152 143,152 143,156 
		147.818,156 152,156 152,152 148,152 	"/>
	<polygon fill="#18140C" points="169,152 174,152 174,147.045 174,143 169,143 169,147.045 	"/>
	<polygon fill="#18140C" points="226,151.408 226,156 230,156 230,151.408 230,147 226,147 	"/>
	<rect x="235" y="147" fill="#18140C" width="4" height="5"/>
	<rect x="73" y="152" fill="#18140C" width="5" height="4"/>
	<rect x="121" y="152" fill="#18140C" width="5" height="4"/>
	<rect x="178" y="152" fill="#18140C" width="4" height="4"/>
	<rect x="113" y="103" fill="#18140C" width="4" height="4"/>
	<polygon fill="#18140C" points="139,107 143,107 143,102.317 143,98 139.091,98 134,98 134,103 139,103 	"/>
	<polygon fill="#18140C" points="178,103 174,103 174,98 178.364,98 182,98 182,93.59 182,89 178,89 178,94 174,94 169,94 
		169,97.954 169,103 165,103 165,106.681 165,111 169.636,111 174,111 174,107 178,107 	"/>
	<rect x="187" y="103" fill="#18140C" width="4" height="4"/>
	<polygon fill="#18140C" points="78,156 78,160 82,160 82,165 86,165 86,160.135 86,156 82.364,156 	"/>
	<polygon fill="#18140C" points="100,156 100,160.135 100,165 104,165 104,160 108,160 108,156 104.182,156 	"/>
	<polygon fill="#18140C" points="139,160.135 139,165 143,165 143,160.135 143,156 139,156 	"/>
	<polygon fill="#18140C" points="165,156 165,160.135 165,165 169.636,165 174,165 174,160.135 174,156 169.636,156 	"/>
	<rect x="200" y="156" fill="#18140C" width="4" height="4"/>
	<polygon fill="#18140C" points="209,160.135 209,165 213.273,165 217,165 217,160 213,160 213,156 209,156 	"/>
	<polygon fill="#18140C" points="239,156 239,160.135 239,165 244,165 244,160 248,160 248,156 243.818,156 	"/>
	<polygon fill="#18140C" points="265.636,156 261,156 261,152 257,152 257,155.772 257,160.135 257,165 261.273,165 265.636,165 
		270,165 270,160.135 270,156 	"/>
	<rect x="117" y="107" fill="#18140C" width="4" height="4"/>
	<rect x="178" y="107" fill="#18140C" width="4" height="4"/>
	<polygon fill="#18140C" points="121,160 121,165 126,165 130,165 130,160.135 130,156 126,156 126,160 	"/>
	<polygon fill="#18140C" points="191.455,160 187,160 187,156 182,156 182,160 178,160 178,165 182.727,165 187.091,165 
		191.455,165 195.818,165 200,165 200,160 195.818,160 	"/>
	<rect x="226" y="160" fill="#18140C" width="4" height="5"/>
</g>
</svg>
