<?xml version="1.0" encoding="utf-8"?>
<!-- Generator: Adobe Illustrator 18.1.1, SVG Export Plug-In . SVG Version: 6.00 Build 0)  -->
<!DOCTYPE svg PUBLIC "-//W3C//DTD SVG 1.1//EN" "http://www.w3.org/Graphics/SVG/1.1/DTD/svg11.dtd">
<svg version="1.1" id="Layer_1" xmlns="http://www.w3.org/2000/svg" xmlns:xlink="http://www.w3.org/1999/xlink" x="0px" y="0px"
	 width="300px" height="240px" viewBox="0 0 300 240" enable-background="new 0 0 300 240" xml:space="preserve">
<g>
	<path fill="#18140C" d="M68.431,130.196c-0.433,0-0.784-0.351-0.784-0.784c0-9.947-8.092-18.039-18.039-18.039
		c-0.433,0-0.784-0.351-0.784-0.784s0.351-0.784,0.784-0.784c10.812,0,19.608,8.796,19.608,19.608
		C69.216,129.845,68.865,130.196,68.431,130.196z"/>
	<path fill="#18140C" d="M30.784,130.196c-0.433,0-0.784-0.351-0.784-0.784c0-10.812,8.796-19.608,19.608-19.608
		c0.433,0,0.784,0.351,0.784,0.784s-0.351,0.784-0.784,0.784c-9.947,0-18.039,8.092-18.039,18.039
		C31.569,129.845,31.217,130.196,30.784,130.196z"/>
	<path fill="#18140C" d="M49.608,149.02C38.796,149.02,30,140.223,30,129.412c0-0.433,0.351-0.784,0.784-0.784
		s0.784,0.351,0.784,0.784c0,9.947,8.092,18.039,18.039,18.039c0.433,0,0.784,0.351,0.784,0.784S50.041,149.02,49.608,149.02z"/>
	<path fill="#18140C" d="M49.608,149.02c-0.433,0-0.784-0.351-0.784-0.784s0.351-0.784,0.784-0.784
		c9.947,0,18.039-8.092,18.039-18.039c0-0.433,0.351-0.784,0.784-0.784s0.784,0.351,0.784,0.784
		C69.216,140.223,60.42,149.02,49.608,149.02z"/>
	<path fill="#18140C" d="M68.431,149.02c-0.433,0-0.784-0.351-0.784-0.784v-37.647c0-0.433,0.351-0.784,0.784-0.784
		s0.784,0.351,0.784,0.784v37.647C69.216,148.669,68.865,149.02,68.431,149.02z"/>
	<path fill="#18140C" d="M74.706,130.196c-0.433,0-0.784-0.351-0.784-0.784c0-10.812,8.796-19.608,19.608-19.608
		c0.433,0,0.784,0.351,0.784,0.784s-0.351,0.784-0.784,0.784c-9.947,0-18.039,8.092-18.039,18.039
		C75.49,129.845,75.139,130.196,74.706,130.196z"/>
	<path fill="#18140C" d="M74.706,149.02c-0.433,0-0.784-0.351-0.784-0.784v-37.647c0-0.433,0.351-0.784,0.784-0.784
		c0.433,0,0.784,0.351,0.784,0.784v37.647C75.49,148.669,75.139,149.02,74.706,149.02z"/>
	<path fill="#18140C" d="M109.216,149.02c-0.433,0-0.784-0.351-0.784-0.784v-37.647c0-0.433,0.351-0.784,0.784-0.784
		c0.433,0,0.784,0.351,0.784,0.784v37.647C110,148.669,109.649,149.02,109.216,149.02z"/>
	<rect x="99.804" y="109.804" fill="#18140C" width="18.824" height="1.569"/>
	<path fill="#18140C" d="M124.902,149.02c-0.433,0-0.784-0.351-0.784-0.784v-37.647c0-0.433,0.351-0.784,0.784-0.784
		s0.784,0.351,0.784,0.784v37.647C125.686,148.669,125.335,149.02,124.902,149.02z"/>
	<path fill="#18140C" d="M131.176,130.196c-0.433,0-0.784-0.351-0.784-0.784c0-10.812,8.796-19.608,19.608-19.608
		c0.433,0,0.784,0.351,0.784,0.784s-0.351,0.784-0.784,0.784c-9.947,0-18.039,8.092-18.039,18.039
		C131.961,129.845,131.61,130.196,131.176,130.196z"/>
	<path fill="#18140C" d="M131.176,149.02c-0.433,0-0.784-0.351-0.784-0.784v-18.824c0-0.433,0.351-0.784,0.784-0.784
		s0.784,0.351,0.784,0.784v18.824C131.961,148.669,131.61,149.02,131.176,149.02z"/>
	<path fill="#18140C" d="M124.902,105.255c-0.433,0-0.784-0.351-0.784-0.784v-0.157c0-0.433,0.351-0.784,0.784-0.784
		s0.784,0.351,0.784,0.784v0.157C125.686,104.904,125.335,105.255,124.902,105.255z"/>
	<path fill="#18140C" d="M140.588,130.196h-9.412c-0.433,0-0.784-0.351-0.784-0.784c0-0.433,0.351-0.784,0.784-0.784h9.412
		c0.433,0,0.784,0.351,0.784,0.784C141.373,129.845,141.021,130.196,140.588,130.196z"/>
	<path fill="#18140C" d="M156.275,149.02c-0.433,0-0.784-0.351-0.784-0.784v-37.647c0-0.433,0.351-0.784,0.784-0.784
		s0.784,0.351,0.784,0.784v37.647C157.059,148.669,156.708,149.02,156.275,149.02z"/>
	<path fill="#18140C" d="M156.275,105.255c-0.433,0-0.784-0.351-0.784-0.784v-0.157c0-0.433,0.351-0.784,0.784-0.784
		s0.784,0.351,0.784,0.784v0.157C157.059,104.904,156.708,105.255,156.275,105.255z"/>
	<path fill="#18140C" d="M193.921,116.16c-0.186,0-0.373-0.066-0.523-0.2c-3.307-2.958-7.578-4.587-12.026-4.587
		c-0.433,0-0.784-0.351-0.784-0.784s0.351-0.784,0.784-0.784c4.834,0,9.477,1.771,13.072,4.987c0.323,0.289,0.35,0.785,0.062,1.107
		C194.351,116.072,194.137,116.16,193.921,116.16z"/>
	<path fill="#18140C" d="M162.549,130.196c-0.433,0-0.784-0.351-0.784-0.784c0-10.812,8.796-19.608,19.608-19.608
		c0.433,0,0.784,0.351,0.784,0.784s-0.351,0.784-0.784,0.784c-9.947,0-18.039,8.092-18.039,18.039
		C163.333,129.845,162.982,130.196,162.549,130.196z"/>
	<path fill="#18140C" d="M181.373,149.02c-10.812,0-19.608-8.796-19.608-19.608c0-0.433,0.351-0.784,0.784-0.784
		c0.433,0,0.784,0.351,0.784,0.784c0,9.947,8.092,18.039,18.039,18.039c0.433,0,0.784,0.351,0.784,0.784
		S181.806,149.02,181.373,149.02z"/>
	<path fill="#18140C" d="M181.373,149.02c-0.433,0-0.784-0.351-0.784-0.784s0.351-0.784,0.784-0.784
		c4.448,0,8.719-1.629,12.026-4.587c0.323-0.289,0.819-0.261,1.107,0.062c0.289,0.323,0.261,0.819-0.062,1.107
		C190.849,147.249,186.207,149.02,181.373,149.02z"/>
	<path fill="#18140C" d="M200.196,149.02c-0.433,0-0.784-0.351-0.784-0.784v-37.647c0-0.433,0.351-0.784,0.784-0.784
		s0.784,0.351,0.784,0.784v37.647C200.98,148.669,200.629,149.02,200.196,149.02z"/>
	<path fill="#18140C" d="M200.196,105.255c-0.433,0-0.784-0.351-0.784-0.784v-0.157c0-0.433,0.351-0.784,0.784-0.784
		s0.784,0.351,0.784,0.784v0.157C200.98,104.904,200.629,105.255,200.196,105.255z"/>
	<path fill="#18140C" d="M244.118,130.196c-0.433,0-0.784-0.351-0.784-0.784c0-9.947-8.092-18.039-18.039-18.039
		c-0.433,0-0.784-0.351-0.784-0.784s0.351-0.784,0.784-0.784c10.812,0,19.608,8.796,19.608,19.608
		C244.902,129.845,244.551,130.196,244.118,130.196z"/>
	<path fill="#18140C" d="M206.471,130.196c-0.433,0-0.784-0.351-0.784-0.784c0-10.812,8.796-19.608,19.608-19.608
		c0.433,0,0.784,0.351,0.784,0.784s-0.351,0.784-0.784,0.784c-9.947,0-18.039,8.092-18.039,18.039
		C207.255,129.845,206.904,130.196,206.471,130.196z"/>
	<path fill="#18140C" d="M225.294,149.02c-10.812,0-19.608-8.796-19.608-19.608c0-0.433,0.351-0.784,0.784-0.784
		c0.433,0,0.784,0.351,0.784,0.784c0,9.947,8.092,18.039,18.039,18.039c0.433,0,0.784,0.351,0.784,0.784
		S225.727,149.02,225.294,149.02z"/>
	<path fill="#18140C" d="M225.294,149.02c-0.433,0-0.784-0.351-0.784-0.784s0.351-0.784,0.784-0.784
		c9.947,0,18.039-8.092,18.039-18.039c0-0.433,0.351-0.784,0.784-0.784s0.784,0.351,0.784,0.784
		C244.902,140.223,236.106,149.02,225.294,149.02z"/>
	<path fill="#18140C" d="M244.118,149.02c-0.433,0-0.784-0.351-0.784-0.784v-37.647c0-0.433,0.351-0.784,0.784-0.784
		s0.784,0.351,0.784,0.784v37.647C244.902,148.669,244.551,149.02,244.118,149.02z"/>
	<path fill="#18140C" d="M250.392,149.02c-0.433,0-0.784-0.351-0.784-0.784v-37.647c0-0.433,0.351-0.784,0.784-0.784
		s0.784,0.351,0.784,0.784v37.647C251.176,148.669,250.825,149.02,250.392,149.02z"/>
	<path fill="#18140C" d="M269.216,149.02h-18.824c-0.433,0-0.784-0.351-0.784-0.784s0.351-0.784,0.784-0.784h18.824
		c0.433,0,0.784,0.351,0.784,0.784S269.649,149.02,269.216,149.02z"/>
	<path fill="#18140C" d="M33.922,105.098c-0.433,0-0.784-0.351-0.784-0.784V91.765c0-0.433,0.351-0.784,0.784-0.784
		c0.433,0,0.784,0.351,0.784,0.784v12.549C34.706,104.747,34.355,105.098,33.922,105.098z"/>
	<path fill="#18140C" d="M37.059,92.549h-6.275c-0.433,0-0.784-0.351-0.784-0.784c0-0.433,0.351-0.784,0.784-0.784h6.275
		c0.433,0,0.784,0.351,0.784,0.784C37.843,92.198,37.492,92.549,37.059,92.549z"/>
	<path fill="#18140C" d="M40.196,105.098c-0.433,0-0.784-0.351-0.784-0.784V91.765c0-0.433,0.351-0.784,0.784-0.784
		c0.433,0,0.784,0.351,0.784,0.784v12.549C40.98,104.747,40.629,105.098,40.196,105.098z"/>
	<path fill="#18140C" d="M46.471,98.824h-6.275c-0.433,0-0.784-0.351-0.784-0.784s0.351-0.784,0.784-0.784h6.275
		c0.433,0,0.784,0.351,0.784,0.784S46.904,98.824,46.471,98.824z"/>
	<path fill="#18140C" d="M46.471,105.098c-0.433,0-0.784-0.351-0.784-0.784V91.765c0-0.433,0.351-0.784,0.784-0.784
		c0.433,0,0.784,0.351,0.784,0.784v12.549C47.255,104.747,46.904,105.098,46.471,105.098z"/>
	<path fill="#18140C" d="M49.608,98.824c-0.433,0-0.784-0.351-0.784-0.784c0-3.892,3.167-7.059,7.059-7.059
		c0.433,0,0.784,0.351,0.784,0.784c0,0.433-0.351,0.784-0.784,0.784c-3.027,0-5.49,2.463-5.49,5.49
		C50.392,98.472,50.041,98.824,49.608,98.824z"/>
	<path fill="#18140C" d="M55.882,105.098c-3.892,0-7.059-3.167-7.059-7.059c0-0.433,0.351-0.784,0.784-0.784
		c0.433,0,0.784,0.351,0.784,0.784c0,3.027,2.463,5.49,5.49,5.49c0.433,0,0.784,0.351,0.784,0.784
		C56.667,104.747,56.315,105.098,55.882,105.098z"/>
	<path fill="#18140C" d="M55.882,98.824h-6.275c-0.433,0-0.784-0.351-0.784-0.784s0.351-0.784,0.784-0.784h6.275
		c0.433,0,0.784,0.351,0.784,0.784S56.315,98.824,55.882,98.824z"/>
</g>
</svg>
